<mxfile host="app.diagrams.net" agent="Mozilla/5.0 (Windows NT 10.0; Win64; x64) AppleWebKit/537.36 (KHTML, like Gecko) Chrome/131.0.0.0 Safari/537.36" version="26.0.2">
  <diagram name="Page-1" id="amuU9YnOWWhc8o1CtKEu">
    <mxGraphModel dx="1195" dy="643" grid="1" gridSize="10" guides="1" tooltips="1" connect="1" arrows="1" fold="1" page="1" pageScale="1" pageWidth="850" pageHeight="1100" math="0" shadow="0">
      <root>
        <mxCell id="0" />
        <mxCell id="1" parent="0" />
        <mxCell id="qmGEXCidDUZO2oQQuMWi-21" value="Lưu trữ dữ liệu" style="swimlane;startSize=20;html=1;fillColor=#dae8fc;strokeColor=#6c8ebf;" vertex="1" parent="1">
          <mxGeometry x="360" y="180" width="160" height="340" as="geometry">
            <mxRectangle x="480.00000000000045" y="180" width="80" height="30" as="alternateBounds" />
          </mxGeometry>
        </mxCell>
        <mxCell id="qmGEXCidDUZO2oQQuMWi-48" value="" style="rounded=1;whiteSpace=wrap;html=1;" vertex="1" parent="qmGEXCidDUZO2oQQuMWi-21">
          <mxGeometry x="10" y="80" width="140" height="180" as="geometry" />
        </mxCell>
        <mxCell id="qmGEXCidDUZO2oQQuMWi-39" value="" style="shape=image;verticalLabelPosition=bottom;labelBackgroundColor=default;verticalAlign=top;aspect=fixed;imageAspect=0;image=https://www.diegocalvo.es/wp-content/uploads/2018/06/hdfs.png;direction=east;" vertex="1" parent="qmGEXCidDUZO2oQQuMWi-21">
          <mxGeometry x="14.169999999999959" y="110" width="131.66" height="40" as="geometry" />
        </mxCell>
        <mxCell id="qmGEXCidDUZO2oQQuMWi-45" value="" style="shape=image;verticalLabelPosition=bottom;labelBackgroundColor=default;verticalAlign=top;aspect=fixed;imageAspect=0;image=https://lanit.com.vn/wp-content/uploads/2024/12/apache-hive-la-gi.png;shadow=0;" vertex="1" parent="qmGEXCidDUZO2oQQuMWi-21">
          <mxGeometry x="19.819999999999993" y="180" width="120.37" height="60" as="geometry" />
        </mxCell>
        <mxCell id="qmGEXCidDUZO2oQQuMWi-64" value="" style="shape=cross;whiteSpace=wrap;html=1;" vertex="1" parent="qmGEXCidDUZO2oQQuMWi-21">
          <mxGeometry x="70" y="160" width="20" height="20" as="geometry" />
        </mxCell>
        <mxCell id="qmGEXCidDUZO2oQQuMWi-23" value="Truy vấn dữ liệu" style="swimlane;startSize=20;html=1;fillColor=#dae8fc;strokeColor=#6c8ebf;" vertex="1" parent="1">
          <mxGeometry x="680" y="180" width="160" height="340" as="geometry">
            <mxRectangle x="480.00000000000045" y="180" width="80" height="30" as="alternateBounds" />
          </mxGeometry>
        </mxCell>
        <mxCell id="qmGEXCidDUZO2oQQuMWi-50" value="" style="shape=image;verticalLabelPosition=bottom;labelBackgroundColor=default;verticalAlign=top;aspect=fixed;imageAspect=0;image=https://trino.io/assets/trino-og.png;" vertex="1" parent="qmGEXCidDUZO2oQQuMWi-23">
          <mxGeometry x="13.34" y="170" width="133.33" height="60" as="geometry" />
        </mxCell>
        <mxCell id="qmGEXCidDUZO2oQQuMWi-19" value="Xử lý dữ liệu" style="swimlane;startSize=20;html=1;fillColor=#dae8fc;strokeColor=#6c8ebf;" vertex="1" parent="1">
          <mxGeometry x="520" y="180" width="160" height="340" as="geometry" />
        </mxCell>
        <mxCell id="qmGEXCidDUZO2oQQuMWi-44" value="" style="shape=image;verticalLabelPosition=bottom;labelBackgroundColor=default;verticalAlign=top;aspect=fixed;imageAspect=0;image=https://i.pinimg.com/originals/50/64/13/5064132e69821108d0c4fff3c6afd9ce.jpg;" vertex="1" parent="qmGEXCidDUZO2oQQuMWi-19">
          <mxGeometry x="27.649999999999956" y="100" width="104.7" height="60" as="geometry" />
        </mxCell>
        <mxCell id="qmGEXCidDUZO2oQQuMWi-66" value="" style="endArrow=classic;startArrow=classic;html=1;rounded=0;" edge="1" parent="qmGEXCidDUZO2oQQuMWi-19">
          <mxGeometry width="50" height="50" relative="1" as="geometry">
            <mxPoint x="-10" y="129.66000000000003" as="sourcePoint" />
            <mxPoint x="30" y="129.66000000000003" as="targetPoint" />
          </mxGeometry>
        </mxCell>
        <mxCell id="qmGEXCidDUZO2oQQuMWi-25" value="" style="swimlane;startSize=20;horizontal=0;html=1;fillColor=#dae8fc;strokeColor=#6c8ebf;" vertex="1" parent="1">
          <mxGeometry x="210" y="520" width="600" height="120" as="geometry" />
        </mxCell>
        <mxCell id="qmGEXCidDUZO2oQQuMWi-46" value="" style="shape=image;verticalLabelPosition=bottom;labelBackgroundColor=default;verticalAlign=top;aspect=fixed;imageAspect=0;image=https://upload.wikimedia.org/wikipedia/commons/thumb/d/de/AirflowLogo.png/1200px-AirflowLogo.png;" vertex="1" parent="qmGEXCidDUZO2oQQuMWi-25">
          <mxGeometry x="60" y="60" width="103.46" height="40" as="geometry" />
        </mxCell>
        <mxCell id="qmGEXCidDUZO2oQQuMWi-63" value="" style="shape=image;verticalLabelPosition=bottom;labelBackgroundColor=default;verticalAlign=top;aspect=fixed;imageAspect=0;image=data:image/webp,UklGRg4aAABXRUJQVlA4IAIaAAAwdACdASoAAgABPpFIn0ulpCKho9ZouLASCWNu4XasCXiyr1+i816sf4D+0/rzhH6a8v7nD/g/ch8wf+B6of7b+13uH/1n+//rN1q/Md+2Xqr/839lvdx+035HfIB/H/7p1sXoEfzH/Qem/+43wuf2v/m/tZ7Xf//1hjzb/U+1P+zeKviA8//rX92/4/Lk6z8y/5B9d/wf9j9Ev994M/JfUF/Hf5V/rN7vAH9Rf9R/fPyi9GH/d/rXqR9cP9T7gH8u/qH+2/tnt3/o/+B4vv3v/VewF/Jv65/yv8V67//n/mvP79L/+X/OfAl/Pv7X/3P8F/mO39+4///9z39uhTXja8bXja8bXja8bXja8bXja8bXja8bXja8bXja8bXja8bXja8bXja8bXja8bXja8bXja8bXja8bXja8bXja8ZgbvE16bgaZtrxteNrxteNrxtbIHN4oe/T2G+8EaFf4O6fmC+a4ZLlbVjvxfC2mKlleN0L3Be4L3BeMMRHnCsBB2w5bitUKPggIjlBBfzboVboBOMFCgKHDCAv0sAMIAYKp6EhanwondSILn8Y38mEu7M8etEFKs8G1mlVtTMADiW9auDGskMlgiZ1c4Sbfz++4L3BVKvX3xrvjJcc6+arrr0Phu255BKRdY2W2csbp8KgQ1q+Mcou78IfnH3MbceJOwyzEb149LL7sG8cQ10iI2Th1W12Aupr6dni+wNCiD82B964kjRXIwCU06tfqXtWX3dUE6GC/4Z73suny4aL/NUtiLnjAQ9Xl5eMQD0MpCMKR/4pxxhv6vUiEXwMUmHy1O6S+X7ZQJcBiirkY4DyoKCZyDU+5VcgUEljR7wIj8IUunjQtqpVd19OMtGk+AYaefu3mvbmBOdkQ/Pi2R9bO5xa6ajN95fY2umKs8WsqPbw9AvY8RwS8t/9Utvchkq5n33Be4L3sbcBwXX3bsUVbhIQMrlWQuq61twRJdfUGEHDgnJ6w6qTvs+aLcmmJ6fuqQ7P9loHfhFtJoe0JJ1UvrP1Z+rP1Z+rLIKXv4Y8fcPlk3QGctdT+dS+6uTzROFm5sLKcFTooOvolugwsE8mornbE6xlRVyjzPkpJc/Vn6s/Vn6suxoAymbH9V3lQQVkhefAfQ6Cb32tcegA0jnXa+yCUMuIVBSaehmEMwhmEMwhmFw5BbbeGD9Wfqz9Wfqz9Wfqz9Wfqz9Wfqz9Wfqz9Wfqz9Wfqz9Wfqz9Wfqz9Wfqz9Wfqz9Wfqz3AAD+/8c6AAAAAAA5/7jMKnR+yGyxIr6+myUmLqPXRT46k/eElC48zw3pZqn6jh0NgrMx+v4ax8JZw4DT6WZ+jdnGEMIzO4SdEkAYKrlPbfyVC/C56PmlH0x+BTr01vDf6PRa1GFKh8NrzQnOoyZFc7xB+ovSfjtMmjvSyBJM2sx253Af2VSxNiyNSgyiqE6EqrwxhRWSS5AzJOwvbQ0AKFW63Uhi6YcHbIn4o9c5JAs1TGE0JWnbKPX2mTUYudt95Tf2qnR50vkvxiPFcIVtIo0ubW3pXtjyEeknU6z/3drxsessZukuvrZj8MAQ7rPUeWm1F5NIEaViO2OKvrW5DpHsZKymQX7GITthPFK0ZF62C5r3anNpgetIIY8axCPfkSD1utw0eFrrGEjIDvnSVfQdlGhzAPtYpVD3pszVFmy1l7qqnYtZsWCXeMpdZWNIpE4LNwt3cMTnavNdgT+qpYykgd5ekfJVLtcgEY1JmFNEa7hz4LJrDvlDLn/5mEwXoSyXW7trqxFYqIdvod+9yPwoc4octaP4AfGmHfADLGGkw2sQdKBh0vF/0pYuzG6XgxWcEpURLWw3m+aH7URvWNRAPPn2PJ85UliFrERjBdgiWwHsxfQ3u9VyA/Oin+mOE+DAjQc8u16FwJOo95GKsGhuz5VmRBLb+3qxZ3HTEaP5UFaUbFuJwTGCDe3n689/lz3cUxH3kNpcIlqS4UfD9KfxVXjKTzuS/Nei5FZPuy7L5RfWqnS9VhTT97pNhro3owDer/IjuRm5l2RiS2HUA6Km9N1K+wo5F87yJjIqYhf7WY4IvGesYQFUj0bpSYuFovACzx+5JjuGD4vCSxSGef8svYrmmHyaPFE8hisz3M2ooY6WKxCWXXRemvYG7NEKZ0I5v/KplBP1F6eZS7NCg4RNNDMvsmTZcPfgGxYm0dzX8SVtnkwZOL8afc9iw/stnDCzL7hWk7vmmEP9qTSVhR42ILajxxT3oxp3rXMkZFtlBjFc9lmrMAN+BRmYjUsg29C+0zE/3Y6UkX/xs7/ZFQhGg4tJS4gETlE9lcUVKBi8S0z20yYhnMGWkbGE4Hno7qhGH58EN4lzWS7v/EBMNswzE/6MQ5WKJNUiJz3Nx9aosSiBVyz2UZvyiweiMr6z6yXpZVrn2DV9OhNLnmqHjkbG7nvFnNH94LHxuf1ZKTf9hyglYyhRc2Zr9vuVy19CfQgFELCxe3VyBawEDfelQniVfYTBklI4VD7eMQdl6V8H5dduc7sgXafGc+Vl4RMev26lxmWFiqx+0qr4Yir41aGu1NLDnbZS646kMSh/BFI/zX0outeDDTagTTxzbrwKU/8aOdsvV7kWdEUKE7yy+Qi709m/SdkV/3rSx0c/mDUSIaaQouSytfwg/9WDBj+bH7i7qUmBp9JHUJEG4f9n1U88y8bS2CDjTRSjr1Vz1KpKOxj8zJmhmuQD8d9wkx5OSlJ7q6DIhzADBOVZ2EL/zD3fkLvL5wPYsNEbyseJ4IWTOyfgr09ykyai1FhN8Ei87wFUiMaQHQ2xljuKyvq5L31juG5DDfXiI6Zq0SG/UfsUyZFeu0VcGR2W+t118QbsFB9tbT2uGjJihHLiF7qq/59scTb45DiSogb1pEsOWbo1ylsKwiZ6Cy7BzfBhthrTaUf+78zHM2MyEa22QRQgItVhM8KcbH8fj5Cvx26ytNjISSHGBWNWBbTaMzK/z8IUx4h/ReJQ0nIMeq98zmvVKUGPjSW+YMFeJEXauK2XbGLPq18mORRDEhetMD5uyNr/9MjP3XoG0B9EFGAe7PkBd3qPhdZuwNwfEgU9kIV8GWg8JG/2CZy6zSctWPS4n9GX/Hswst/6kFzEkT0FLwlXTBnhuJCPtk5dRyiClgUhO4bSl8wFYAs/JtKMdfU4Y4kD9nJoPLRhVIOx9PbjKLrqKCvpm18jSpvVxxMfw3JmADvqkP2tYmdz2Bsbgn1JZGXbOXSUwCYosA28RzJyRTrQGiM5ZL+B7Vf4gchPT4LH0Cky0AI/gnelJsvG6lopi7UcZF7BoGbiUi5Vtkwk06vyyuTZ1PP4ifS3EXLpjUv4TczSPhgTApHCVn4dEgycVNC/nEnNiQnO5R2ILbibofrd/jJPQt/Yc7LdHwoadXzOMGUEpT/7+pUXfr7Lwtd2ptL9nQ7Mv0cwZB6uZWzz3vTfzcL+nwmx5bWqtHZlgvb/j/Eqzp4GxZ9J9dnlVCAJlJ26+fEw0W4QPc8ZaFhQef68r9ArtCSCrHhXBeJY35n7eNSnaOj0y4+jIzlsCRBumPOwN6ZZALdsRwcjp+38zOQD1Wz33ZGHZH0kx7v+hwD37P5ZyuVC8o3rlDcdiGWHj+fzGKLTmTkHURME6Q21hRtoZKzeaYGiJCfk1bhbYhJJfF4HmwHND1yIcxqDN+I30ix0jDiF3B9bEyrLNOU+sfrPHq1rA3q48umzeR9geagWT6waWoUkE5pK4JOMPLnva9YycLpWKHTFspkJXNBKRIoxZHmlu2ZTmzYvp4aMAkZI/WeRY1dlded7/OpI4vzGVYKfhef6m6C1qVeiDUUUtY7EPNpPcCABBqjROrU9f9spM3O9DrVsIs4LssttvUK2WbrLGlDz0cdsgKxiYk4jDQ44nCRhj+uutW4OsoEoSSBGoEzrixE7dXdqsUblYgMuskoHwXjrrWgB9vS0uOJ8SXUallgXi0SHioZyedL6e/H8+fcU+28uKo00a5gdowyRl7YlzttHmfcmViFu9XFkw7GxemHcfcKs70NPiIUyneWuNVxIHbH8G28z8Y2MQgR1ERxsmIn0DW5FT/moGoAk/m+u4glhLO2X/dKJkG5T4PaRPWkjnhuiOokAEz0NIRYFMYhuTOG3GlRFqejqji+xuwKQfJuVw1kh1jyuo9p8cKT307qtKXJ3lhEXsWwTurc2XfaR97ciMhpvTj5sla5Zx4eaanpj3vDGpGyzzpmEJNiCMY5Y984ZDcVPwnwSonpICVi9HtMAkb78ZGqA2VklOwe9Y3aYMYQFZLNLpT6ZkWk7Mth8UiANG891Xn1rU5qgIcF8NHN39UtbMEVUgiTvb17st3VcgFOMzuJOpL9vBnxIo94tXg0PpoxtT+l6CTaVF0yfCilP8Uhftzfwgckg3du37kzlaWtpKSSdsE6NelteenaIJDLBpsB68pIwk6lFECOe4Z84Lv5NkB6zapchUhU1hEEDu7hlt+itSf4/HIO71PWu53HGo6m2YBToQB4T9WeaexWflJuRzWqtSVVVl1YOBjbzBsZqKJRG05iTufaqHmXFzNWgghD3wRw+T6NAP5rM8ChReplpSm3yna6RVLv4QgzFkM+rdB4vh/bBxVr7K8navCZN+fk37Oz39f598XqEGxp3cJ2jnaqFBZHWIr2Sme4nuQiOOWZnSfhb2WCJxS6949mSYmeM9oI828fW2kr5XDdHJlEABo0/osVzRP0rjA9A6kdNm8VJPhBelEs3bZbI8UnYkxn0DrtAq2BP1AvUJd6A8AIhLTYg/IwoW79Ua00HPBjobSAvvzamseonO0n6LfIMOTnnsTcg6vilr+jIwsOQVRRaIwQUyx9G+bk8w2CD08kTCBdrCMbeSq0qNUGzo052uDJw41BLZ7mOX/TE4sPT8ZDQzdwsaQWvLL6sIcW4h+lqwp/Re52ZCi1JJ2817D4gACnmjKmGVaYkF0emfLQQaTR9eoFCxepr1rIUHC5BQWEZ47peEJOOqUt+wtmDUcoG9sEbwlD6waf2fy4rVU6AiTznnJMO3lV3+6FUasWY99WrDKjJM1/nTtTr4xpOaVE3e+0e0fRCcpXA8ExZKe5yzyTuNxGekCl3yKqERasEx5tVXJlM414jvH/HbeBccVxxglXHrcUO8NyYDUWDxrxstWG3kYwITJohDZbHVUHtUk7GUAqmigCKvWEb1Clb297ouExKmCwn1r1UmtbDfKcDJLXmMzd1UtItflC+jZphHDA/acenNpzue0U2xJpxyJhJvmsj4TInuQlruiMYvZWib+MYIWbXbp0y5Kff8zGSjY/aXeNllem/eqSCwsecqtbyybkZKJLEzlO97pfMChshSNBUTp6oKkDGu0iJS5NYzrMKzpYDQB3ylM7MKta3eT72VI4FasNCd9MNbpRNHg5DjmMPDUCHXwJU9VXp2oiCY5NFZw1nH1PuOFurl0DsnV0LkUmPWp6iGxzHddhQHTQXo3kaen+LLdwPivSR8HL7d2tE++QrMZ4m8Z2ecmQycj1+6eq0ZWz8OL2PxZ2x6HZDDgJRgb7eYbFhbuMx/B/gKQLrXF19N+tpQgJohREBCkEtqWgkDdP2H5Qv/EauqP3XU6Ok1TaMyBU0jqYZPBiamlsL9DtsI4tBCNcSQ1i9by+x3cVKvjqSjl2aJR90A8NzALWGTtZ1rvNGQKmm4jGQZKSZ+B5mh4h7LJNFe8IGnMhUNKMq7Ei7jdAw7Z/EXHuDKU8UctoN79LNBxzZ0wYYsi741ULXLNO2MqotZPthsGRi+Ou0bu+pd1n0FVNVkKjkzN7/Y13KHkpTg1BXJl69HKwOnzRtV7Q5cKj/nEAFRJScZH8iFsWrGziKoc+gydZbgfA3QnoIj1lxpaF5wtE8SDw4Ca5YtC7w9+lma/TFwBzYemAXaw+iiWROJwo4U++4eN39sJi5u99xxVYhdi00m/HGyISHBEbMdfBwFUHu2yq01gdpZsPsaUzkXZG9tqAIHuKIgYXHRtPPPl9i2H3f3LZRVroY+6eDpbfuOe5vajXkWMciV2wvzERvI7vQaVcGBgKT+3AZjQA0S1cQWEXMit/Cs/8lb7I2sMaykcPG0JMLppRGDJa85tXWzeIoVsapd6iRn1ukW1cMYrKlqsdvAV4N2woCboob3RKrkksmJkT9pryx2S7iTryIYJufHgEWzWyPlnFbALBk6G7x6MCF/DMZuPBbV1jcXcVTbDInqtBiljMlR3OgM8WWL/neyxOb1qjX2uEbvYcmPNMV7LrvtYAWhXHE4X3eiM7Zpldi5fr3CFT9pz/55a+xDQGfwlX9Gj35HcsEqCZYlWR6FgcKBYyQdMPs8ipktr7eDIUDofmZlEU3IVb43CriJaMJPW9NioV4kMrCFK/kgLi96HPmY+ZedQJNyGVtIKW/i+zGh6zFHq/2TgrL6hjuBGiVrs/CIxq2qgcoyUmIrFZJK8KrOtY9w1VgM2FELG/GTWq7UST5SDwq7/Mi/JiL84YhmTnNoD7sniLz1ZoF34dCGyfmZ9Wp9GGTFaI5UFNPVSZvBIg+RU5sBll1SIkTdcKOr0aSFEVJJH/ACr0QR7Fa6viMViey2L5lK0KceFZlCwqavNqKju6uotqwDrATkaUvKcCVMno9BmqopUgF0Np3DPI/A1b4uPZneBIUuBtb/3SUSYSCtAgLO6HSSCDMRmaCGbGd96IMF5yd7Lmv01Yvdm76Yy3UAktPCE5rabtCTvkNuPmMAAABhOb253Msjf/s3SmTsNd90o4uSXycJL9+fk2KdeRpcv/wzb6nw0NMvfTY5UqY1qWUASdNnVU82/KOfnc/9XCGwAxUYKby69ekW7MFFCe78499Al9rkGA2SSAgVrpqzcqwEVdxSX13K8awbaIJzuqa6tPuhoi2M/nDEuPHijCMZuZj30aOdisC8YrtaQ+vOx0sjXVd+OYa1T1u0gy9qu357J7shG0ytjoB6zLuOl0yH2YVaZelbTT6OmQyzmhbweV3i5i+zVUnzpM1SOcqWUv95TITqW0102d18vfj4SV1AXnC5Fn3oFeqWzxCe2fHDacbQbdrBNc99U4tneksI5b3lOJfky6ZTaOj0jKtQ1hqLsNMofOEFfNFpYsG5E2T9OrXGviR70V1Ahwc+G9LVlUCGB63PV2QqrtB1buZDqvjQgrYWfNlzS8nmjjRKIWvcTBjsvpxEQlUPgYRvppsYRcQGncxCspUk75aag+q1uMT2Xin6Fhl07aFkpZI4jRmIxgLp1ghpKmfZX8euKAJPm0cRCiJuLU0AKC2YPoMAnVS/UY/1s/EFtbPV2QYiy64SMH0ky4yOvn+IUISmqNnF6egInlXvFN00f8bm3Ma2YN7iN8G4q4pJXICF12HPCzDV7dqfHHfJvFcYPDd8O8JVg02q2pAFa0Cu5rOrGoOqzh7NgSjtXiRJ/vt/siKcs0D4Y3ZQwW4QG4I4aboWJTBEElSSjwTsvDLiC9FrtAvMztkICDmwD0XX4JJQIeZ9daFr9IWBjlAx6DSi4LEfPDtk6yHKzOwqBvEASfilou0zmKG3uIWEs5KEcW5xl+FdEdNJtLdUa5BWZ5Bj/E15hw7oDaDDxOXYrH38pkrbCi5i6qxhA8Ighq40cRq6tlUCWl9GF4OwsQ0W5r5beSv5CVMxcdxETdGWIonBODZirJU6EPKsNQabwahu4NQ+ICjw2hbppMQAABSzUMgpl8x8fXQTpyeLzZSbcVc72v09K2bL3sFLZD0pNZRXSjJplrqbR0LCyGYFstZvJay4x37JIWUaeDVusQDr3MfzzZ7sYYuw+2nRxkkvSiFWsaBJHE6XeQ3rL5Nobt/D7WA6QLeZdTUcfiwmynIw0Bk2G/AWw1+AHX1AjJPfokmAGxO95uUfDqQLwFSzyDZlukqIrPHGWKv3HzCiOWsYoDeHXdc8TFIBnhTRhJ1X+O8083tBBgqyro7Iaph2XikBtma9iueaQVTvliz64PX3Llfxhm4qWl/mfx5oPCM91AI0otTmFVf8njsy6VffhubHTaG7Ye4xFng35ztvDN2nf6dtQAGQcXX2KK6/gy0+H3p9BkWo4PdkGFqCw6cHpP+oOMonkLZ77BKPtdqjuxZxK0q1UU6aMqalyCMSmsf0SDZ8PbLoljOXbbpRz2U0LBtHwX7p64xPVm0Q+ec7TQgjlFtLrbDC9PxJdqwkHlDiDZtT1yhnmSVuM1dDgqJI/OkbKJt/l15ZLUJR9GV4yvNHKQ4JffE+DR5YXJG18wqKFTlOsLBVDfiVQqEyZ0Q5QznB7++/1xAHPaSgBBV3XIlONUbNh6lYAGS6i73P+3qBjEYKbjVxwJ1qe43ePE42R0QvmF34gsv3cr/XXAvSW+zR05pmEZ+CLZEzdBDTrYONiTeayVh8n8VrXFn6fHTlxXV96AUsaCt8vLIzW0Nn4AAR7rycZbnn7pH7cxR0A2cdPiNq/8UZ8MXBuxh+Q18t5b+OA1Fr5sCqYqdyz8O/YpA2XiAeR/H8qmQ/dZFPZbOe73WLWaITb/GhTdGhJOR9fQJJZK7vAc+HflAFiLOtGKVGjTWJZcJ0HvWRbmPrcsiFMkq4RvJUzJ6+Gk3ThOi60Yazx8p6k8En9wlxCRgBy72L9TexhCHCkpQtKjgLmjEE1LX9pAroea2SuJptoCJ1K8ysOxur5HduG0cBwE7C+uXVu8lKfJ2tvXBT8VqABsCp0OVUzlgVtXxWNZxDCGlfdQqHw9BOvJyRuy0AiC9feSzTTOfVBrWfMAr6siRj3csUa+mHD1Y4LTia/W2Np3ETRksTFlz20EjMlXlxPf3k2bOgjyvo32GhV+Cmd+KO5hACgQ/6g1k/tXZpinKUti3EFCkwkwXrRypniAAAAAAAAAA;" vertex="1" parent="qmGEXCidDUZO2oQQuMWi-25">
          <mxGeometry x="230" y="40" width="160" height="80" as="geometry" />
        </mxCell>
        <mxCell id="qmGEXCidDUZO2oQQuMWi-70" value="&lt;b&gt;Lập lịch tác vụ&lt;/b&gt;" style="text;html=1;align=center;verticalAlign=middle;whiteSpace=wrap;rounded=0;fillColor=#dae8fc;strokeColor=#6c8ebf;" vertex="1" parent="qmGEXCidDUZO2oQQuMWi-25">
          <mxGeometry x="51.730000000000004" y="30" width="120" height="20" as="geometry" />
        </mxCell>
        <mxCell id="qmGEXCidDUZO2oQQuMWi-73" value="" style="shape=image;verticalLabelPosition=bottom;labelBackgroundColor=default;verticalAlign=top;aspect=fixed;imageAspect=0;image=https://techvccloud.mediacdn.vn/2018/10/15/kubernetes-15395717142261348450270-0-57-799-1479-crop-1539571719483162513005.png;" vertex="1" parent="qmGEXCidDUZO2oQQuMWi-25">
          <mxGeometry x="420" y="40" width="142.44" height="80" as="geometry" />
        </mxCell>
        <mxCell id="qmGEXCidDUZO2oQQuMWi-74" value="&lt;b&gt;Triển khai&lt;/b&gt;" style="text;html=1;align=center;verticalAlign=middle;whiteSpace=wrap;rounded=0;fillColor=#dae8fc;strokeColor=#6c8ebf;" vertex="1" parent="qmGEXCidDUZO2oQQuMWi-25">
          <mxGeometry x="451.83000000000004" y="20" width="78.78" height="20" as="geometry" />
        </mxCell>
        <mxCell id="qmGEXCidDUZO2oQQuMWi-69" value="&lt;b&gt;Quản lý tài nguyên&lt;/b&gt;" style="text;html=1;align=center;verticalAlign=middle;whiteSpace=wrap;rounded=0;fillColor=#dae8fc;strokeColor=#6c8ebf;" vertex="1" parent="qmGEXCidDUZO2oQQuMWi-25">
          <mxGeometry x="250" y="30" width="120" height="20" as="geometry" />
        </mxCell>
        <mxCell id="qmGEXCidDUZO2oQQuMWi-20" value="&lt;font&gt;Nguồn dữ liệu&lt;/font&gt;" style="swimlane;startSize=20;html=1;fillColor=#dae8fc;strokeColor=#6c8ebf;strokeWidth=1;" vertex="1" parent="1">
          <mxGeometry x="40" y="180" width="160" height="340" as="geometry">
            <mxRectangle x="480.00000000000045" y="180" width="80" height="30" as="alternateBounds" />
          </mxGeometry>
        </mxCell>
        <mxCell id="qmGEXCidDUZO2oQQuMWi-29" value="" style="shape=image;verticalLabelPosition=bottom;labelBackgroundColor=default;verticalAlign=top;aspect=fixed;imageAspect=0;image=https://user-images.githubusercontent.com/51070104/268566349-c41e65a5-2ab9-4b54-8cbc-350ab6da746c.png;" vertex="1" parent="qmGEXCidDUZO2oQQuMWi-20">
          <mxGeometry x="40" y="210" width="80" height="60" as="geometry" />
        </mxCell>
        <mxCell id="qmGEXCidDUZO2oQQuMWi-67" value="&lt;b&gt;API&lt;/b&gt;" style="text;html=1;align=center;verticalAlign=middle;whiteSpace=wrap;rounded=0;" vertex="1" parent="qmGEXCidDUZO2oQQuMWi-20">
          <mxGeometry x="130" y="220" width="30" height="20" as="geometry" />
        </mxCell>
        <mxCell id="qmGEXCidDUZO2oQQuMWi-22" value="Thu thập dữ liệu" style="swimlane;startSize=20;html=1;fillColor=#dae8fc;strokeColor=#6c8ebf;" vertex="1" parent="1">
          <mxGeometry x="200" y="180" width="160" height="340" as="geometry">
            <mxRectangle x="480.00000000000045" y="180" width="80" height="30" as="alternateBounds" />
          </mxGeometry>
        </mxCell>
        <mxCell id="qmGEXCidDUZO2oQQuMWi-31" value="" style="shape=image;verticalLabelPosition=bottom;labelBackgroundColor=default;verticalAlign=top;aspect=fixed;imageAspect=0;image=https://cdn2.fptshop.com.vn/unsafe/1920x0/filters:quality(100)/2024_2_5_638426886915131643_kafka-la-gi.jpg;" vertex="1" parent="qmGEXCidDUZO2oQQuMWi-22">
          <mxGeometry x="30" y="210" width="90" height="60" as="geometry" />
        </mxCell>
        <mxCell id="qmGEXCidDUZO2oQQuMWi-36" value="" style="shape=image;verticalLabelPosition=bottom;labelBackgroundColor=default;verticalAlign=top;aspect=fixed;imageAspect=0;image=https://i.pinimg.com/736x/3e/a4/74/3ea47478593f9f25bfd4ef9223b8bbf3.jpg;" vertex="1" parent="qmGEXCidDUZO2oQQuMWi-22">
          <mxGeometry x="22.65" y="90" width="104.7" height="60" as="geometry" />
        </mxCell>
        <mxCell id="qmGEXCidDUZO2oQQuMWi-40" value="" style="endArrow=classic;html=1;rounded=0;entryX=0;entryY=0.5;entryDx=0;entryDy=0;strokeWidth=1;" edge="1" parent="qmGEXCidDUZO2oQQuMWi-22" target="qmGEXCidDUZO2oQQuMWi-31">
          <mxGeometry width="50" height="50" relative="1" as="geometry">
            <mxPoint x="-47.349999999999994" y="240" as="sourcePoint" />
            <mxPoint x="22.650000000000006" y="240" as="targetPoint" />
          </mxGeometry>
        </mxCell>
        <mxCell id="qmGEXCidDUZO2oQQuMWi-43" value="" style="endArrow=classic;html=1;rounded=0;" edge="1" parent="qmGEXCidDUZO2oQQuMWi-22">
          <mxGeometry width="50" height="50" relative="1" as="geometry">
            <mxPoint x="79.65999999999997" y="230" as="sourcePoint" />
            <mxPoint x="80" y="140" as="targetPoint" />
          </mxGeometry>
        </mxCell>
        <mxCell id="qmGEXCidDUZO2oQQuMWi-32" value="Trực quan hóa dữ liệu" style="swimlane;startSize=20;html=1;fillColor=#dae8fc;strokeColor=#6c8ebf;" vertex="1" parent="1">
          <mxGeometry x="840" y="180" width="160" height="340" as="geometry">
            <mxRectangle x="480.00000000000045" y="180" width="80" height="30" as="alternateBounds" />
          </mxGeometry>
        </mxCell>
        <mxCell id="qmGEXCidDUZO2oQQuMWi-58" value="" style="shape=image;verticalLabelPosition=bottom;labelBackgroundColor=default;verticalAlign=top;aspect=fixed;imageAspect=0;image=data:image/png,iVBORw0KGgoAAAANSUhEUgAAAbkAAAByCAMAAAD50l/ZAAAAz1BMVEX///9ISEggp8lFRUVCQkI7Ozs+Pj41NTUyMjI3NzdSUlL8/Py7u7vp6el+fn5cXFzv7++np6dubm4uLi719fWzs7NkZGTHx8ePj4+ZmZmsrKy2trba2tpXV1fj4+NhYWGRkZF2dnaCgoLCwsLPz89tbW2hoaElJSVKPjlJQ0EAn8REVVshpcY3eo0fHx9BXmczg5krk648bHo0YG2r0d5Hq8d2u9EXFxcvjKXk8PTU6fCUyttGT1K72+Y7cICTrbZYttJ/xdqIucg5or6uydG0NY4qAAAP8UlEQVR4nO1diXajOBaFIAlhvAZsMMY7tqsy1dXLTC/V29RMz/9/0wiQhEASEMfurnR0z6lTDkEPWVd6m56IZRkYGBgYGBgYGBgYGBgYGBgYGBgYGBgYGBgYGBgYGBgYGBgYGBgYGBgYGBhwjKLZbn+arCen8XKVhs9sna6WY9J4exrvkmx0+975YZ8exa53+0d/0RjN99CFCAAnB0DQcyfntG/r6fzR80jrsjFpjcF4+FzqOxDgjz0kxgjc9rFfNvzVFkNgN+AgdzDrM/zRo6I1gPh0vGEfI2ijpPu2N8VcePag0xx4Rh6Opx3NhwNPoo22hmB2s17uyYIe8J94p0KffvDTQkPEyCEKhF2cdnX+VWPmIfXA07UTxG3rLhroWC8A4eo2vQwxPEKck5Nc7GMQ4DP56O/g5TLJ8t/HQRC4s5y5QeQGQf5bK4FBgG70/C8PqQ3beCN4/8+nf+laT09uG285vPXmFv2cQ8d6hLvyEz5sASaq08aD8wlcCHULsryXkFyLgQPigRNElnXGcL+Hwd+UumXQNfLv//Hw8PS9WuvMsUZPinCCHuapE2u4tIYQ5Q+FLunNAkBrdDiQWYHAwcowJFTtLoDaOQT2VhggsvKWyL7B0784+KeuBUfw4YHg6TdF60evu3UOb/zinm6wR0hyvShnDhMzNoRuvpbTLB2AsXVG+TWfmLW4YOoEFsSlQbPhMAb4xj7ul4Bw0L1k3v3xUODph2brDeix4Eqgha96/jOwRCBJ5muylChzGfRSK8aXIHAIc0vk0htL5haEuSG08eUSuD/+/ZgL7R7E/fTA8H19BIa4S88KAJMe1I2i+ew8m80jRRgPbOJtBJ5NFlDJ3BG6o8TNdeQjGlszlGtQy/cF5o4QHqcEd0gK/MXw+xD31UOFD5+E1kvcn7ecum1Hb7IDciFEBJCE8btGDiDz4DAjgDChdu5E7NyB/Mu/xtjaBGhpWYfLWmAuDMCJfBz9/QKDbTdx7797EPH0M2986GniOFCrrTva9ZgQ4G2NuzEa0P/XhDkbjyeI+JEJdiaHYJATdHDh4wleIsYcWhC1GgD0OPh4uMPY/aXYdTsnuVuppm7fw7NpwNN7mKOJJ2le4vlXN4QeKFtHyNusIJp7QZFP2eHAixKIycfECYI8sou93Lc8FcstWgcBPPRO4b0SZH203YeHJnWli/nYGrtrEOjiuqE6MkG22kLNc6aYzRVsb6gwpb2S1PfEabDOMdiXP6brxSRbzixrFV8t0un2L5hbKa26q4iznYm6J8dA1wAqTVTpobwSTGgS/sQukIj0QGYeuDpQWnYPvuBWitR9svZXEUf0pTKbMaoWP/I8CD2XixfylAKS4OMrYq5cIM4ju5AzN46y07XMTbt1Zc2tFHF4vo1jzKi6cmKuCUCzTU7JZobYJXhWNNgcb7kFcWeomBuni8d0f6XAuNOvbLiVFX5/fy1xNlQ4KSmbQ1DwSPjkePX5D4k5oin3o3g5WlwnL3R1gwuItsKuB0HTrWT45p2WGAeRttiFSGdCHUfuClPboDYJD3Rmwfl1X/CLgcRcRCZrOA3DKz3euVrhORDFx3QaTtPh+ElN3Lda4gBeJNkoDEfZeaJLROdpxwYWlGa35kj6UMXnK4TE3Aux1rjhw+qW8BcVdx90qpKEX8LQb/bqRa3wqOiSazojS8q9YpV2Y7Ra7nZJpvntNEqWy9mwde8pOu/OQns/S5ZxHJ9XupWilXlj5kZK/8RrJBvCH2TuftUQB7eNTkdybJ3DlbxCmotxTvXLRwwKXIqfHgOcIxA2bOYfi0v4x3LCoOKOICAf0y3O62mIo7pUWMn5BJc5NhcsxWXu/0jlkc8Z8BCohiPbY/IzyMtrXBTL7PjJWiVzdiHi2Cg4Ql9fAKWydGU/7rcmdV9rllwgtx0pFbInLQQWAjSqRzbxrkAZsI7LFShGhEMqn2rZQTlExKM5V3E9krTzCgo7+CiIq4nk09mcp7QLCazoZbRwRd0PgnFjPsw9tcxECp7cFzM3VpghpArqP9WTKBq30nFViilVLew8L1wHs3OwzdXvzZw3Wtb0dFDzcPxFI9uKEFd/jDl3lAVih4ZBc7AAFudDKMkEVOY9mFNE0uqg1/K/73YrHaTu0Fn1GMkZ5nfBFm+rN3POuLHUA2GUFbtaTsAmHWMOpnQqeUV/hqoEjyB06ihklt/kDsypwnCF11eiok7jVjqObhtFlWrBzZs2vDP4oN2P6c2cLVlXWClE5T4ypLqPMedsqQic92bEiHPy/A5vj6dtMh1UyEwke/Fi5lJ5h8bRF2sw6jRupQO0461adK50955/d4B1ef3+zBEgFyGXjxrasRY7blI9F/AUG3N3GXOce1fsHLCTNM2WzO0CzHuJ1TKLX89IPwD3UADxYIKXMjeUnQfZ/nD4rW6lA/W92ShCA0/iJhTsO3DXMxV5z2AOgDmZHOGKpwNYGmbDlg/cp74VJmz64tJZ9AVFBKDneflcDmkbFlZOGa80580VRilzzmRW2yK3jQpkBWxDXfCTd/9Di1uJ28IihXsJZa2cips8RCvBg3TPM7QlK5sI2SAj6vey5QPpJGXziq6fijnH3R2zLMtn0JE+xGPuZEa5oT6yJJP+GnB377bMKbRYqwb+RIKD79TEBTrzWGAhx3RwKN+2sesdIlO+EYn1Zw7whsy3pYaAxbCVDDaByxiTMwcm1bNn5S1OVYqRKz0CXGx7MCuokMku3JY5xQ5Pe2b3tyeNW9mRVlREH+qS52UzXYbw0pcFdTMHhGwCz6sV+peSIESUviteqeyc8GA6xwXHe7YssMs0MtmaZDr//sy173j9W03c+98/tTY79GXOGu0l7sQArz9zY/mOMqRmLqOw00SpRcXZB8YcEk9CJBI1NUzYQpdlJvVb7qgtWwuk1PkQ+/3XDw+tjO8VzCm0ZYF0jxt7DG7FwlXMseCnuMYWmHgDnVilUVIyx8yaDRPFF/WxXuaO/nx3D0V2+QSEQLZXOX4ljsv3bQ8aKOyc3jCOzrZbIw8N2HBdxZxFfZRC13HfYRdOKUIqtWyjZK6q+YBeLJWBpi0ymda+LXOKqKDtxI2vqYR+X/icn1saqiL+FieWjMVsG4hBAmPqOubYks8VZMS+M3A5WKzWwtyx+goAuni7FLvfJvM+zGVyJN62DzZRE/fu2zLO+6xtGCmUbGcaIRxOquNBrJrhOuZ2tOOeX/n3CrQxZ+1qs4/ELKA6C6pYAVwmCwtuy9xIESFjnaHzdcR9QyP0p8+65zwqWkrZLwWyCR8S6vNex9zyBsxZc1dye2eNLqhk3oc5S1GfDDT1f+FaoyqFMpXP6qaqzQJd5V4DCZtbdBxftuag9QLmrPDQdJ3goHxmm8w7MadcDEofZSOnwgs0qp+VwYFq4537XB1g2VoaA1/HXKxiDsAm3MJSaJkjTurZcZHopdFC0KFeJr6PneMRZA1IoS/153XqG3cffpbbjlUPae7ChQlFM4nG3NIyGXEdcweBOWZzweE4bKJwd1uYI0iTwwBXvhMoNqvaZDJP5sbMqVLBtgOaoxdqqkkU1c9P/2k+Q33yoJmr2VzKbFLQ3FdlMWdpf69jjgXfeS0L9+B1qfV25orhGG6571RoqE6Z1u0riORtrFw6rtUk+GftUWJl9XPtLHmmPuHVrDaxpq5mvOYsAVgwd7iKOZapzBdIKKUtG+hmrvhaLGuyE2W2nDC7NXOqnbO813CZlsGvn8Wu+h5bV/389PAL9fhHq4nm3L+cQdENaFJbc9y/r27oZi5jyqxYEszqYk1YomJumpao7EjI7O+ij0zr9sxpi9OB5w324/3a073ixM7f1aAijuArDE7j/Ra42vdsQKknzFlqRugnVlNQ/MRTu5Ub1Z1x5lswhR1jk1V3FEPFXHTxcgTCpdrq5zL1R/Qoc7erG1XVEFE4AGiyXZQ4XfXzT++Kxi1tkVwixv2zuoOUUS1K61a4L1DFLoyXRh2KzfOLfNez3MXhlYpufd2zbJyKOeoPiAuG+qtlv3itg1s300KGby1k4G6CjW7RdcKB0qG6EvrqZw5PsZfEmHaQMKI8+0K3kaphp0vT5+eJmvtzbHeNb1+zBcEnK662pvzV4COdMUo7B+tPJWBC44bMlSDTvlSzkG01tSaGnwXFBkwvOHD0WUnch+7zeFBl/CM+h6B9zqZ+GG5WE54qYPU/PHeNd+kmPcaVMm9WMzjeMhtN0zOv1GW79pWFgJPhZjrdZPMx0eusjkPJHCtdYXlynyv38sKUV4Z521JmMsaVTKuy0DZK0uwmr9IKn3vOm43LRiwHE6CrfhbaqquUYh4+lCdKsFB4itk6nPGbiCUuirBYFl+uIALQdasXYlUWhleekOnnkVu88rAXnRxK5pj3aHuD8/C4OjBvmx9tacqEVCaXEPEbkAcvNzn3N9Qe52kb/Jy4ehEmha76WUCgURj6lwVUB7P85j3Omuohmbk6hIRssxaTPmSuZ646T+sgCKuqvaqIQx22Clsvom57eaVs+T2ef/LUgbROSqKux6E6qI1XE03giIVc6rBhmIMN9RWk2q/GfaLvoBxmUKoCTTw3V51hFwPfNpmFAGHOtW9x9Yd2murgAD5nGtS1HKrjX6blqN/oUcEdBDWHrfb+FYcQQiOFZlSw9Gr31Qtl5LecOe6iFKCLxFPQnOEADztlCo7ytmqvLQh4JqbaE4pqgIHgGn4WD4v0cCvBoFXHp/v6u02BJ+UyIn6Yw4F56X7kFWfncTMSP/ODAOS+5iRPJ+KmjYPwllenB4U4R3Kj/KW4V0CaHMIOmYvaU/09T0soD09fg1HrmymbgPV3d/23ok57qE5gwu46Njyd713inOTwMJBLLskQzGxc5OHtoihks17kWEs5lM04KOTggeoNLNnBdcunuPg0q1K1filuMZHL2cLZOqA9CyYzRWK+JjORjFk0wfRr3ewE7qj/O9eIO95oXB3R+rVzAtSWqx7TNDoOh8dUW840ilYr1VvBGtkvPx3q7suxIVJWw+w5r90M03w7IEq1iqOQedS9eHwa5Q+85WuswnVPN8XB8iGp0R993Up4uvtrMFQZ5783Dr3emAcnyvlSaExN9bPIessuyK3w9pizIsl3klC8eFeJzR8PX3V5J9D+M1689QaZy32nVmsH8LhFQf/vXft7bZB7u7ent+EtMkfs5y7QBggA7zuWTIK0LqoDXdUh+3vgbTKXl4OsMZJWngM8uOuRsDmeFH9owgYIT1Z/2gu63ipzBJvk0RP+ukv+B1rsuG+2hgRjRWOHN3a9vRzY3BFvmLkcm+Ms3m/Xg/V2HyfRM8OPzfB8WKwHg8Hk8XA+3uRvFDwDb5y5VwzD3GuFYe61ApTvfgpe+xve3h5Chr+6IwYGBgYGBgYGBgYGBgYGBgYGBgYGBgYGBgYGBgYGBgYGBgYGBgYGBq8E/weFCwVSZFmPWwAAAABJRU5ErkJggg==;" vertex="1" parent="qmGEXCidDUZO2oQQuMWi-32">
          <mxGeometry x="2.6299999999999963" y="190" width="154.74" height="40" as="geometry" />
        </mxCell>
        <mxCell id="qmGEXCidDUZO2oQQuMWi-72" value="" style="endArrow=classic;startArrow=classic;html=1;rounded=0;" edge="1" parent="qmGEXCidDUZO2oQQuMWi-32">
          <mxGeometry width="50" height="50" relative="1" as="geometry">
            <mxPoint x="-20" y="210" as="sourcePoint" />
            <mxPoint x="10" y="210.34000000000003" as="targetPoint" />
          </mxGeometry>
        </mxCell>
        <mxCell id="qmGEXCidDUZO2oQQuMWi-42" value="" style="endArrow=classic;html=1;rounded=0;exitX=0.989;exitY=0.587;exitDx=0;exitDy=0;exitPerimeter=0;entryX=0;entryY=0.25;entryDx=0;entryDy=0;" edge="1" parent="1" source="qmGEXCidDUZO2oQQuMWi-36" target="qmGEXCidDUZO2oQQuMWi-48">
          <mxGeometry width="50" height="50" relative="1" as="geometry">
            <mxPoint x="327.3483000000002" y="309.9999999999999" as="sourcePoint" />
            <mxPoint x="371.15" y="310.05999999999983" as="targetPoint" />
          </mxGeometry>
        </mxCell>
        <mxCell id="qmGEXCidDUZO2oQQuMWi-71" value="" style="endArrow=classic;startArrow=classic;html=1;rounded=0;exitX=1.012;exitY=0.723;exitDx=0;exitDy=0;exitPerimeter=0;" edge="1" parent="1" source="qmGEXCidDUZO2oQQuMWi-48">
          <mxGeometry width="50" height="50" relative="1" as="geometry">
            <mxPoint x="540" y="390" as="sourcePoint" />
            <mxPoint x="700" y="390" as="targetPoint" />
          </mxGeometry>
        </mxCell>
      </root>
    </mxGraphModel>
  </diagram>
</mxfile>
